M48
INCH
T1C0.0118
T2C0.0315
T3C0.0394
T4C0.0669
T5C0.0787
T6C0.1378
%
G90
G05
T1
X3.4465Y-2.0685
X3.4465Y-2.2685
X3.4465Y-4.0685
X3.4465Y-4.2685
X3.4465Y-4.4685
X3.4465Y-4.6685
X3.5465Y-2.1685
X3.5465Y-2.3685
X3.5465Y-4.1685
X3.5465Y-4.3685
X3.5465Y-4.5685
X3.5465Y-4.7685
X3.6465Y-2.0685
X3.6465Y-2.2685
X3.6465Y-4.0685
X3.6465Y-4.4685
X3.6465Y-4.6685
X3.7465Y-2.1685
X3.7465Y-2.3685
X3.7465Y-4.5685
X3.7465Y-4.7685
X3.8465Y-2.0685
X3.8465Y-2.2685
X3.8465Y-4.0685
X3.8465Y-4.4685
X3.8465Y-4.6685
X3.9465Y-2.1685
X3.9465Y-2.3685
X3.9465Y-4.1685
X3.9465Y-4.3685
X3.9465Y-4.5685
X3.9465Y-4.7685
X4.0465Y-2.0685
X4.0465Y-2.2685
X4.0465Y-4.0685
X4.0465Y-4.2685
X4.0465Y-4.4685
X4.0465Y-4.6685
X4.1465Y-2.1685
X4.1465Y-2.3685
X4.1465Y-4.3685
X4.1465Y-4.5685
X4.1465Y-4.7685
X4.2465Y-2.0685
X4.2465Y-2.2685
X4.2465Y-4.0685
X4.2465Y-4.2685
X4.2465Y-4.4685
X4.2465Y-4.6685
X4.3465Y-2.1685
X4.3465Y-2.3685
X4.3465Y-4.1685
X4.3465Y-4.3685
X4.3465Y-4.5685
X4.3465Y-4.7685
X4.4465Y-2.0685
X4.4465Y-2.2685
X4.4465Y-4.0685
X4.4465Y-4.2685
X4.4465Y-4.4685
X4.4465Y-4.6685
X4.5465Y-2.1685
X4.5465Y-2.3685
X4.5465Y-4.1685
X4.5465Y-4.3685
X4.5465Y-4.5685
X4.5465Y-4.7685
X4.6465Y-2.0685
X4.6465Y-2.2685
X4.6465Y-4.0685
X4.6465Y-4.2685
X4.6465Y-4.4685
X4.6465Y-4.6685
X4.7465Y-2.1685
X4.7465Y-2.3685
X4.7465Y-4.1685
X4.7465Y-4.3685
X4.7465Y-4.5685
X4.7465Y-4.7685
X4.8465Y-2.0685
X4.8465Y-2.2685
X4.8465Y-2.4685
X4.8465Y-2.6685
X4.8465Y-2.8685
X4.8465Y-3.0685
X4.8465Y-3.2685
X4.8465Y-3.4685
X4.8465Y-3.6685
X4.8465Y-3.8685
X4.8465Y-4.0685
X4.8465Y-4.2685
X4.8465Y-4.4685
X4.8465Y-4.6685
X4.9465Y-2.1685
X4.9465Y-2.3685
X4.9465Y-2.5685
X4.9465Y-2.7685
X4.9465Y-2.9685
X4.9465Y-3.1685
X4.9465Y-3.3685
X4.9465Y-3.5685
X4.9465Y-3.7685
X4.9465Y-3.9685
X4.9465Y-4.1685
X4.9465Y-4.3685
X4.9465Y-4.5685
X4.9465Y-4.7685
X5.0465Y-2.0685
X5.0465Y-2.2685
X5.0465Y-2.4685
X5.0465Y-2.6685
X5.0465Y-2.8685
X5.0465Y-3.0685
X5.0465Y-3.2685
X5.0465Y-3.4685
X5.0465Y-3.6685
X5.0465Y-3.8685
X5.0465Y-4.0685
X5.0465Y-4.2685
X5.0465Y-4.4685
X5.0465Y-4.6685
T2
X3.5165Y-3.2185
X3.7133Y-3.2185
X4.0065Y-2.4317
X4.0065Y-2.6285
X4.2465Y-3.7101
X4.2465Y-3.9069
X4.418Y-3.2285
X4.6149Y-3.2285
T3
X4.0265Y-3.6117
X4.0265Y-4.0054
X4.2365Y-2.2048
X4.2365Y-2.5985
T4
X4.1265Y-2.9626
X4.1265Y-3.1185
X4.1265Y-3.2744
X4.1265Y-3.4303
T5
X4.2065Y-4.1685
T6
X3.7421Y-2.811
X3.7421Y-3.561
X3.7421Y-4.311
X4.4921Y-2.811
X4.4921Y-3.561
T0
M30
