%TF.GenerationSoftware,KiCad,Pcbnew,(6.0.7-1)-1*%
%TF.CreationDate,2022-10-01T11:55:10+02:00*%
%TF.ProjectId,HP6632B_binding_posts,48503636-3332-4425-9f62-696e64696e67,v2.0*%
%TF.SameCoordinates,Original*%
%TF.FileFunction,Copper,L1,Top*%
%TF.FilePolarity,Positive*%
%FSLAX46Y46*%
G04 Gerber Fmt 4.6, Leading zero omitted, Abs format (unit mm)*
G04 Created by KiCad (PCBNEW (6.0.7-1)-1) date 2022-10-01 11:55:10*
%MOMM*%
%LPD*%
G01*
G04 APERTURE LIST*
G04 Aperture macros list*
%AMRoundRect*
0 Rectangle with rounded corners*
0 $1 Rounding radius*
0 $2 $3 $4 $5 $6 $7 $8 $9 X,Y pos of 4 corners*
0 Add a 4 corners polygon primitive as box body*
4,1,4,$2,$3,$4,$5,$6,$7,$8,$9,$2,$3,0*
0 Add four circle primitives for the rounded corners*
1,1,$1+$1,$2,$3*
1,1,$1+$1,$4,$5*
1,1,$1+$1,$6,$7*
1,1,$1+$1,$8,$9*
0 Add four rect primitives between the rounded corners*
20,1,$1+$1,$2,$3,$4,$5,0*
20,1,$1+$1,$4,$5,$6,$7,0*
20,1,$1+$1,$6,$7,$8,$9,0*
20,1,$1+$1,$8,$9,$2,$3,0*%
G04 Aperture macros list end*
%TA.AperFunction,ComponentPad*%
%ADD10C,8.000000*%
%TD*%
%TA.AperFunction,ComponentPad*%
%ADD11C,2.000000*%
%TD*%
%TA.AperFunction,ComponentPad*%
%ADD12C,1.600000*%
%TD*%
%TA.AperFunction,SMDPad,CuDef*%
%ADD13RoundRect,0.250001X0.462499X0.849999X-0.462499X0.849999X-0.462499X-0.849999X0.462499X-0.849999X0*%
%TD*%
%TA.AperFunction,SMDPad,CuDef*%
%ADD14RoundRect,0.250001X-0.849999X0.462499X-0.849999X-0.462499X0.849999X-0.462499X0.849999X0.462499X0*%
%TD*%
%TA.AperFunction,SMDPad,CuDef*%
%ADD15RoundRect,0.250001X-0.462499X-0.849999X0.462499X-0.849999X0.462499X0.849999X-0.462499X0.849999X0*%
%TD*%
%TA.AperFunction,SMDPad,CuDef*%
%ADD16RoundRect,0.250001X0.849999X-0.462499X0.849999X0.462499X-0.849999X0.462499X-0.849999X-0.462499X0*%
%TD*%
%TA.AperFunction,ComponentPad*%
%ADD17C,4.000000*%
%TD*%
%TA.AperFunction,ComponentPad*%
%ADD18RoundRect,0.250000X1.800000X-1.330000X1.800000X1.330000X-1.800000X1.330000X-1.800000X-1.330000X0*%
%TD*%
%TA.AperFunction,ComponentPad*%
%ADD19O,4.100000X3.160000*%
%TD*%
%TA.AperFunction,ViaPad*%
%ADD20C,0.600000*%
%TD*%
%TA.AperFunction,Conductor*%
%ADD21C,2.000000*%
%TD*%
%TA.AperFunction,Conductor*%
%ADD22C,3.000000*%
%TD*%
G04 APERTURE END LIST*
D10*
%TO.P,BP2,1,Pin_1*%
%TO.N,/V-*%
X95050000Y-90450000D03*
%TD*%
D11*
%TO.P,C604,1*%
%TO.N,Earth*%
X102272000Y-101736000D03*
%TO.P,C604,2*%
%TO.N,Net-(C604-Pad2)*%
X102272000Y-91736000D03*
%TD*%
D12*
%TO.P,C605,1*%
%TO.N,Net-(C603-Pad1)*%
X101764000Y-66764000D03*
%TO.P,C605,2*%
%TO.N,Earth*%
X101764000Y-61764000D03*
%TD*%
D13*
%TO.P,L601,1,1*%
%TO.N,Net-(C603-Pad1)*%
X102926500Y-70828000D03*
%TO.P,L601,2,2*%
%TO.N,/V+*%
X100601500Y-70828000D03*
%TD*%
D14*
%TO.P,L603,1,1*%
%TO.N,Net-(J615-Pad3)*%
X97192000Y-78194000D03*
%TO.P,L603,2,2*%
%TO.N,Net-(C604-Pad2)*%
X97192000Y-80519000D03*
%TD*%
D10*
%TO.P,BP1,1,Pin_1*%
%TO.N,/V+*%
X95050000Y-71400000D03*
%TD*%
D15*
%TO.P,L606,1,1*%
%TO.N,Net-(C608-Pad2)*%
X106297000Y-91148000D03*
%TO.P,L606,2,2*%
%TO.N,/V-_sense*%
X108622000Y-91148000D03*
%TD*%
D12*
%TO.P,C607,1*%
%TO.N,Net-(C607-Pad1)*%
X112218000Y-82004000D03*
%TO.P,C607,2*%
%TO.N,Earth*%
X117218000Y-82004000D03*
%TD*%
%TO.P,C608,1*%
%TO.N,Earth*%
X107860000Y-99236000D03*
%TO.P,C608,2*%
%TO.N,Net-(C608-Pad2)*%
X107860000Y-94236000D03*
%TD*%
D10*
%TO.P,BP5,1,Pin_1*%
%TO.N,Earth*%
X95050000Y-109500000D03*
%TD*%
D16*
%TO.P,L602,1,1*%
%TO.N,Net-(J615-Pad4)*%
X107098000Y-71736500D03*
%TO.P,L602,2,2*%
%TO.N,Net-(C603-Pad1)*%
X107098000Y-69411500D03*
%TD*%
D14*
%TO.P,L604,1,1*%
%TO.N,Net-(C604-Pad2)*%
X97192000Y-82727000D03*
%TO.P,L604,2,2*%
%TO.N,/V-*%
X97192000Y-85052000D03*
%TD*%
D16*
%TO.P,L605,1,1*%
%TO.N,Net-(C607-Pad1)*%
X111670000Y-78594500D03*
%TO.P,L605,2,2*%
%TO.N,/V+_sense*%
X111670000Y-76269500D03*
%TD*%
D11*
%TO.P,C603,1*%
%TO.N,Net-(C603-Pad1)*%
X107606000Y-66002000D03*
%TO.P,C603,2*%
%TO.N,Earth*%
X107606000Y-56002000D03*
%TD*%
D17*
%TO.P,J1,1,Pin_1*%
%TO.N,Earth*%
X106844000Y-105880000D03*
%TD*%
D18*
%TO.P,J615,1,Pin_1*%
%TO.N,Net-(C608-Pad2)*%
X104812000Y-87130000D03*
D19*
%TO.P,J615,2,Pin_2*%
%TO.N,Net-(C607-Pad1)*%
X104812000Y-83170000D03*
%TO.P,J615,3,Pin_3*%
%TO.N,Net-(J615-Pad3)*%
X104812000Y-79210000D03*
%TO.P,J615,4,Pin_4*%
%TO.N,Net-(J615-Pad4)*%
X104812000Y-75250000D03*
%TD*%
D12*
%TO.P,C606,1*%
%TO.N,Earth*%
X89318000Y-81750000D03*
%TO.P,C606,2*%
%TO.N,Net-(C604-Pad2)*%
X94318000Y-81750000D03*
%TD*%
D10*
%TO.P,BP3,1,Pin_1*%
%TO.N,/V+_sense*%
X114100000Y-71400000D03*
%TD*%
%TO.P,BP4,1,Pin_1*%
%TO.N,/V-_sense*%
X114100000Y-90450000D03*
%TD*%
D20*
%TO.N,Earth*%
X97700000Y-118580000D03*
X128180000Y-103340000D03*
X90080000Y-116040000D03*
X123100000Y-57620000D03*
X125640000Y-65240000D03*
X110400000Y-60160000D03*
X90080000Y-121120000D03*
X102780000Y-118580000D03*
X128180000Y-77940000D03*
X105320000Y-110960000D03*
X123100000Y-103340000D03*
X90080000Y-110960000D03*
X118020000Y-103340000D03*
X97700000Y-52540000D03*
X107860000Y-103340000D03*
X123100000Y-72860000D03*
X115480000Y-121120000D03*
X125640000Y-95720000D03*
X120560000Y-60160000D03*
X118020000Y-113500000D03*
X87540000Y-108420000D03*
X123100000Y-98260000D03*
X95160000Y-116040000D03*
X120560000Y-105880000D03*
X110400000Y-55080000D03*
X128180000Y-118580000D03*
X128180000Y-67780000D03*
X102780000Y-103340000D03*
X112940000Y-57620000D03*
X92620000Y-103340000D03*
X128180000Y-93180000D03*
X128180000Y-83020000D03*
X123100000Y-67780000D03*
X105320000Y-121120000D03*
X87540000Y-118580000D03*
X97700000Y-57620000D03*
X100240000Y-110960000D03*
X87540000Y-57620000D03*
X110400000Y-105880000D03*
X120560000Y-55080000D03*
X100240000Y-116040000D03*
X120560000Y-110960000D03*
X125640000Y-60160000D03*
X87540000Y-52540000D03*
X102780000Y-52540000D03*
X128180000Y-113500000D03*
X125640000Y-70320000D03*
X112940000Y-118580000D03*
X107860000Y-113500000D03*
X125640000Y-110960000D03*
X92620000Y-113500000D03*
X125640000Y-105880000D03*
X125640000Y-80480000D03*
X110400000Y-110960000D03*
X128180000Y-88100000D03*
X123100000Y-93180000D03*
X125640000Y-116040000D03*
X92620000Y-52540000D03*
X90080000Y-105880000D03*
X110400000Y-121120000D03*
X107860000Y-108420000D03*
X95160000Y-121120000D03*
X120560000Y-116040000D03*
X102780000Y-57620000D03*
X128180000Y-57620000D03*
X105320000Y-116040000D03*
X123100000Y-118580000D03*
X107860000Y-118580000D03*
X92620000Y-57620000D03*
X128180000Y-72860000D03*
X123100000Y-113500000D03*
X90080000Y-60160000D03*
X118020000Y-52540000D03*
X100240000Y-55080000D03*
X128180000Y-98260000D03*
X110400000Y-116040000D03*
X107860000Y-57620000D03*
X123100000Y-52540000D03*
X123100000Y-62700000D03*
X128180000Y-52540000D03*
X118020000Y-118580000D03*
X95160000Y-60160000D03*
X115480000Y-105880000D03*
X125640000Y-90640000D03*
X115480000Y-60160000D03*
X128180000Y-62700000D03*
X128180000Y-108420000D03*
X107860000Y-52540000D03*
X105320000Y-55080000D03*
X92620000Y-118580000D03*
X100240000Y-121120000D03*
X87540000Y-103340000D03*
X97700000Y-103340000D03*
X125640000Y-85560000D03*
X100240000Y-60160000D03*
X125640000Y-100800000D03*
X123100000Y-108420000D03*
X123100000Y-83020000D03*
X102780000Y-113500000D03*
X115480000Y-55080000D03*
X115480000Y-110960000D03*
X125640000Y-121120000D03*
X112940000Y-52540000D03*
X105320000Y-60160000D03*
X115480000Y-116040000D03*
X120560000Y-121120000D03*
X123100000Y-77940000D03*
X102780000Y-108420000D03*
X112940000Y-108420000D03*
X97700000Y-113500000D03*
X118020000Y-57620000D03*
X95160000Y-55080000D03*
X125640000Y-55080000D03*
X87540000Y-113500000D03*
X118020000Y-108420000D03*
X100240000Y-105880000D03*
X123100000Y-88100000D03*
X125640000Y-75400000D03*
X112940000Y-103340000D03*
X90080000Y-55080000D03*
X112940000Y-113500000D03*
%TD*%
D21*
%TO.N,Net-(J615-Pad3)*%
X97192000Y-78194000D02*
X98716000Y-78194000D01*
X98716000Y-78194000D02*
X99986000Y-79464000D01*
D22*
X104812000Y-79210000D02*
X100277499Y-79210000D01*
D21*
%TO.N,Net-(C608-Pad2)*%
X106509500Y-93099500D02*
X107606000Y-94196000D01*
X107606000Y-94196000D02*
X107860000Y-94196000D01*
%TO.N,Net-(C603-Pad1)*%
X101764000Y-66764000D02*
X103034000Y-68034000D01*
X104411500Y-69411500D02*
X107352000Y-69411500D01*
X103034000Y-68034000D02*
X103034000Y-70828000D01*
X103034000Y-68034000D02*
X104411500Y-69411500D01*
X103034000Y-70574000D02*
X103034000Y-70828000D01*
X107606000Y-66002000D02*
X103034000Y-70574000D01*
%TO.N,Net-(C604-Pad2)*%
X98208000Y-81750000D02*
X100748000Y-84290000D01*
X94612000Y-81750000D02*
X98208000Y-81750000D01*
X100748000Y-90132000D02*
X102272000Y-91656000D01*
X100748000Y-84290000D02*
X100748000Y-90132000D01*
%TO.N,/V+_sense*%
X114100000Y-71400000D02*
X114100000Y-73732000D01*
X114100000Y-73732000D02*
X111670000Y-76162000D01*
X114100000Y-71400000D02*
X114100000Y-73986000D01*
%TO.N,/V-_sense*%
X109130000Y-91148000D02*
X108909500Y-91148000D01*
X114100000Y-90450000D02*
X109828000Y-90450000D01*
X109828000Y-90450000D02*
X109130000Y-91148000D01*
%TO.N,Net-(C607-Pad1)*%
X112218000Y-82004000D02*
X112218000Y-79250000D01*
X111012000Y-83170000D02*
X112178000Y-82004000D01*
X104812000Y-83170000D02*
X111012000Y-83170000D01*
X112218000Y-79250000D02*
X111670000Y-78702000D01*
%TO.N,Net-(C608-Pad2)*%
X106509500Y-88827500D02*
X106509500Y-93099500D01*
X104812000Y-87130000D02*
X106509500Y-88827500D01*
D22*
%TO.N,Net-(J615-Pad4)*%
X106884500Y-72311500D02*
X107098000Y-72311500D01*
X104812000Y-75250000D02*
X104812000Y-74384000D01*
X104812000Y-74384000D02*
X106884500Y-72311500D01*
%TD*%
%TA.AperFunction,Conductor*%
%TO.N,Earth*%
G36*
X129442539Y-50520185D02*
G01*
X129488294Y-50572989D01*
X129499500Y-50624500D01*
X129499500Y-122375500D01*
X129479815Y-122442539D01*
X129427011Y-122488294D01*
X129375500Y-122499500D01*
X85624974Y-122499500D01*
X85557935Y-122479815D01*
X85512180Y-122427011D01*
X85500974Y-122375406D01*
X85517750Y-100288906D01*
X85537486Y-100221881D01*
X85590324Y-100176167D01*
X85641750Y-100165000D01*
X120814000Y-100165000D01*
X120814000Y-92457660D01*
X120819870Y-92419960D01*
X120846644Y-92336066D01*
X120846645Y-92336063D01*
X120847338Y-92333891D01*
X120950446Y-91904417D01*
X120966662Y-91836874D01*
X120966664Y-91836864D01*
X120967191Y-91834669D01*
X121050159Y-91328009D01*
X121050361Y-91325747D01*
X121095625Y-90818577D01*
X121095626Y-90818564D01*
X121095798Y-90816634D01*
X121105399Y-90450000D01*
X121086586Y-89936937D01*
X121030247Y-89426630D01*
X120936686Y-88921820D01*
X120818059Y-88469639D01*
X120814000Y-88438173D01*
X120814000Y-73407660D01*
X120819870Y-73369960D01*
X120846644Y-73286066D01*
X120846645Y-73286063D01*
X120847338Y-73283891D01*
X120967191Y-72784669D01*
X121050159Y-72278009D01*
X121095798Y-71766634D01*
X121105399Y-71400000D01*
X121086586Y-70886937D01*
X121030247Y-70376630D01*
X120936686Y-69871820D01*
X120818059Y-69419639D01*
X120814000Y-69388173D01*
X120814000Y-62573000D01*
X109701933Y-62573000D01*
X109640781Y-62556872D01*
X109631212Y-62551447D01*
X109628153Y-62549654D01*
X109618301Y-62543687D01*
X109577781Y-62519148D01*
X109513626Y-62480294D01*
X109513623Y-62480292D01*
X109511030Y-62478722D01*
X109462604Y-62455520D01*
X109455030Y-62451565D01*
X109408421Y-62425141D01*
X109408420Y-62425141D01*
X109405738Y-62423620D01*
X109281728Y-62368796D01*
X109278347Y-62367239D01*
X109260991Y-62358923D01*
X109158126Y-62309638D01*
X109104256Y-62290031D01*
X109096531Y-62286921D01*
X109044262Y-62263813D01*
X109044248Y-62263808D01*
X109041435Y-62262564D01*
X108916053Y-62221462D01*
X108912270Y-62220154D01*
X108793267Y-62176841D01*
X108793268Y-62176841D01*
X108790407Y-62175800D01*
X108731371Y-62160642D01*
X108723633Y-62158383D01*
X108662938Y-62138486D01*
X108640989Y-62133640D01*
X108537530Y-62110798D01*
X108533426Y-62109818D01*
X108414320Y-62079237D01*
X108414313Y-62079236D01*
X108411382Y-62078483D01*
X108347613Y-62068611D01*
X108339851Y-62067155D01*
X108277002Y-62053279D01*
X108276994Y-62053278D01*
X108273988Y-62052614D01*
X108150009Y-62037940D01*
X108145615Y-62037340D01*
X108027670Y-62019081D01*
X108027662Y-62019080D01*
X108024670Y-62018617D01*
X107956619Y-62014813D01*
X107948976Y-62014147D01*
X107922508Y-62011014D01*
X107881511Y-62006161D01*
X107881505Y-62006161D01*
X107878433Y-62005797D01*
X107875341Y-62005740D01*
X107875336Y-62005740D01*
X107790729Y-62004190D01*
X107757186Y-62003575D01*
X107752546Y-62003403D01*
X107633962Y-61996773D01*
X107562271Y-61999777D01*
X107554833Y-61999865D01*
X107480184Y-61998497D01*
X107477113Y-61998747D01*
X107477107Y-61998747D01*
X107362865Y-62008039D01*
X107358006Y-62008338D01*
X107294257Y-62011010D01*
X107242987Y-62013159D01*
X107168335Y-62023651D01*
X107161159Y-62024447D01*
X107124957Y-62027391D01*
X107086261Y-62030538D01*
X107086253Y-62030539D01*
X107083180Y-62030789D01*
X107080130Y-62031346D01*
X106970950Y-62051285D01*
X106965931Y-62052096D01*
X106858476Y-62067198D01*
X106858466Y-62067200D01*
X106855477Y-62067620D01*
X106852541Y-62068330D01*
X106852532Y-62068332D01*
X106778700Y-62086194D01*
X106771825Y-62087652D01*
X106691345Y-62102351D01*
X106585116Y-62132912D01*
X106580003Y-62134264D01*
X106558577Y-62139448D01*
X106478065Y-62158926D01*
X106478062Y-62158927D01*
X106475131Y-62159636D01*
X106472292Y-62160625D01*
X106472267Y-62160632D01*
X106397134Y-62186797D01*
X106390644Y-62188859D01*
X106362697Y-62196899D01*
X106311515Y-62211623D01*
X106311507Y-62211626D01*
X106308555Y-62212475D01*
X106305685Y-62213620D01*
X106209228Y-62252102D01*
X106204058Y-62254033D01*
X106149466Y-62273044D01*
X106105579Y-62288327D01*
X106061696Y-62308604D01*
X106027326Y-62324485D01*
X106021263Y-62327093D01*
X105993674Y-62338100D01*
X105938596Y-62360074D01*
X105846856Y-62407729D01*
X105841733Y-62410241D01*
X105753112Y-62451190D01*
X105753107Y-62451193D01*
X105750349Y-62452467D01*
X105747738Y-62453999D01*
X105747732Y-62454002D01*
X105672885Y-62497915D01*
X105667319Y-62500991D01*
X105585125Y-62543687D01*
X105582539Y-62545376D01*
X105582527Y-62545383D01*
X105571145Y-62552817D01*
X105503337Y-62573000D01*
X85632449Y-62573000D01*
X85565410Y-62553315D01*
X85519655Y-62500511D01*
X85508449Y-62449079D01*
X85500899Y-50624579D01*
X85520541Y-50557527D01*
X85573316Y-50511739D01*
X85624899Y-50500500D01*
X129375500Y-50500500D01*
X129442539Y-50520185D01*
G37*
%TD.AperFunction*%
%TD*%
%TA.AperFunction,Conductor*%
%TO.N,/V-*%
G36*
X95939809Y-84110049D02*
G01*
X98420424Y-84135361D01*
X98488335Y-84156057D01*
X98508231Y-84172259D01*
X99210595Y-84874623D01*
X99244621Y-84936935D01*
X99247500Y-84963718D01*
X99247500Y-90016268D01*
X99246243Y-90034021D01*
X99245007Y-90042706D01*
X99245124Y-90047868D01*
X99245124Y-90047871D01*
X99247468Y-90151150D01*
X99247500Y-90154009D01*
X99247500Y-90194554D01*
X99247710Y-90197109D01*
X99247711Y-90197133D01*
X99248509Y-90206839D01*
X99248901Y-90214298D01*
X99250605Y-90289382D01*
X99251563Y-90294454D01*
X99251564Y-90294460D01*
X99257684Y-90326847D01*
X99259451Y-90339916D01*
X99260493Y-90352584D01*
X99262575Y-90377911D01*
X99267772Y-90398602D01*
X99280869Y-90450746D01*
X99282474Y-90458045D01*
X99296417Y-90531833D01*
X99298192Y-90536684D01*
X99298193Y-90536687D01*
X99309518Y-90567633D01*
X99313395Y-90580236D01*
X99322684Y-90617217D01*
X99324744Y-90621954D01*
X99352629Y-90686087D01*
X99355404Y-90693025D01*
X99381211Y-90763545D01*
X99383762Y-90768053D01*
X99399983Y-90796724D01*
X99405869Y-90808528D01*
X99421072Y-90843493D01*
X99461862Y-90906545D01*
X99465727Y-90912927D01*
X99500164Y-90973795D01*
X99500169Y-90973803D01*
X99502712Y-90978297D01*
X99505957Y-90982319D01*
X99505962Y-90982326D01*
X99526659Y-91007977D01*
X99534386Y-91018651D01*
X99555095Y-91050661D01*
X99605635Y-91106203D01*
X99610492Y-91111871D01*
X99627803Y-91133326D01*
X99627810Y-91133334D01*
X99629917Y-91135945D01*
X99658675Y-91164703D01*
X99662774Y-91168999D01*
X99721154Y-91233158D01*
X99725205Y-91236357D01*
X99725209Y-91236361D01*
X99743793Y-91251037D01*
X99754796Y-91260824D01*
X100948007Y-92454035D01*
X100966343Y-92477294D01*
X101057006Y-92625241D01*
X101098238Y-92672841D01*
X101127720Y-92737424D01*
X101129000Y-92755336D01*
X101129000Y-96864000D01*
X101108998Y-96932121D01*
X101055342Y-96978614D01*
X101003000Y-96990000D01*
X88809000Y-96990000D01*
X88740879Y-96969998D01*
X88694386Y-96916342D01*
X88683000Y-96864000D01*
X88683000Y-91804834D01*
X88703002Y-91736713D01*
X88740066Y-91699363D01*
X88901199Y-91594049D01*
X88905179Y-91591448D01*
X89077509Y-91437249D01*
X89224674Y-91258874D01*
X89298157Y-91135945D01*
X89340882Y-91064471D01*
X89340883Y-91064468D01*
X89343323Y-91060387D01*
X89406158Y-90906532D01*
X89428955Y-90850714D01*
X89428956Y-90850711D01*
X89430755Y-90846306D01*
X89432577Y-90838756D01*
X89483862Y-90626134D01*
X89483862Y-90626133D01*
X89484978Y-90621507D01*
X89501683Y-90426938D01*
X89503185Y-90415560D01*
X89504488Y-90408268D01*
X89504488Y-90408263D01*
X89505345Y-90403469D01*
X89505621Y-90391117D01*
X89501598Y-90360846D01*
X89500500Y-90344247D01*
X89500500Y-88671970D01*
X89503085Y-88646581D01*
X89503737Y-88643413D01*
X89503738Y-88643407D01*
X89504717Y-88638647D01*
X89505044Y-88631923D01*
X89505080Y-88631174D01*
X89505080Y-88631171D01*
X89505316Y-88626307D01*
X89503915Y-88613145D01*
X89503294Y-88604442D01*
X89497197Y-88438173D01*
X89496171Y-88410195D01*
X89456956Y-88197567D01*
X89455475Y-88193216D01*
X89455473Y-88193209D01*
X89388760Y-87997237D01*
X89387280Y-87992889D01*
X89385184Y-87988801D01*
X89290720Y-87804592D01*
X89290716Y-87804586D01*
X89288620Y-87800498D01*
X89285949Y-87796753D01*
X89165736Y-87628213D01*
X89165733Y-87628210D01*
X89163068Y-87624473D01*
X89013285Y-87468546D01*
X89009659Y-87465733D01*
X88846075Y-87338837D01*
X88846072Y-87338835D01*
X88842447Y-87336023D01*
X88747046Y-87282153D01*
X88697564Y-87231242D01*
X88683000Y-87172437D01*
X88683000Y-85644473D01*
X88703002Y-85576352D01*
X88756658Y-85529859D01*
X88822389Y-85519186D01*
X88922255Y-85529859D01*
X89102411Y-85549113D01*
X89102420Y-85549114D01*
X89105578Y-85549451D01*
X89108764Y-85549468D01*
X89108770Y-85549468D01*
X89285250Y-85550392D01*
X89490624Y-85551467D01*
X89635167Y-85537549D01*
X89870737Y-85514866D01*
X89870742Y-85514865D01*
X89873902Y-85514561D01*
X89877022Y-85513938D01*
X89877026Y-85513937D01*
X90248361Y-85439737D01*
X90248360Y-85439737D01*
X90251489Y-85439112D01*
X90254525Y-85438178D01*
X90254533Y-85438176D01*
X90616476Y-85326827D01*
X90616479Y-85326826D01*
X90619518Y-85325891D01*
X90622446Y-85324654D01*
X90622452Y-85324652D01*
X90781869Y-85257312D01*
X90974221Y-85176059D01*
X90977024Y-85174525D01*
X90977029Y-85174522D01*
X91186043Y-85060090D01*
X91311968Y-84991148D01*
X91629298Y-84773053D01*
X91631737Y-84770985D01*
X91631743Y-84770980D01*
X91920525Y-84526076D01*
X91920533Y-84526068D01*
X91922965Y-84524006D01*
X91925173Y-84521711D01*
X91925181Y-84521704D01*
X92187745Y-84248859D01*
X92187747Y-84248856D01*
X92189960Y-84246557D01*
X92287583Y-84122053D01*
X92345357Y-84080789D01*
X92388023Y-84073807D01*
X95939809Y-84110049D01*
G37*
%TD.AperFunction*%
%TD*%
%TA.AperFunction,Conductor*%
%TO.N,/V+*%
G36*
X100592132Y-65598502D02*
G01*
X100638625Y-65652158D01*
X100648729Y-65722432D01*
X100625558Y-65779093D01*
X100481603Y-65975065D01*
X100369969Y-66195106D01*
X100295773Y-66430427D01*
X100261007Y-66674706D01*
X100266605Y-66921382D01*
X100267563Y-66926454D01*
X100267564Y-66926460D01*
X100268770Y-66932842D01*
X100312417Y-67163833D01*
X100397211Y-67395545D01*
X100399755Y-67400041D01*
X100399757Y-67400046D01*
X100516163Y-67605792D01*
X100518712Y-67610297D01*
X100645917Y-67767945D01*
X101346095Y-68468123D01*
X101380121Y-68530435D01*
X101383000Y-68557218D01*
X101383000Y-76036000D01*
X101362998Y-76104121D01*
X101309342Y-76150614D01*
X101257000Y-76162000D01*
X95414000Y-76162000D01*
X94398000Y-76924000D01*
X94398000Y-77687000D01*
X94377998Y-77755121D01*
X94324342Y-77801614D01*
X94272000Y-77813000D01*
X88682000Y-77813000D01*
X88613879Y-77792998D01*
X88567386Y-77739342D01*
X88556000Y-77687000D01*
X88556000Y-65704500D01*
X88576002Y-65636379D01*
X88629658Y-65589886D01*
X88682000Y-65578500D01*
X100524011Y-65578500D01*
X100592132Y-65598502D01*
G37*
%TD.AperFunction*%
%TD*%
M02*
