%TF.GenerationSoftware,KiCad,Pcbnew,(6.0.7-1)-1*%
%TF.CreationDate,2022-10-01T11:55:10+02:00*%
%TF.ProjectId,HP6632B_binding_posts,48503636-3332-4425-9f62-696e64696e67,v2.0*%
%TF.SameCoordinates,Original*%
%TF.FileFunction,Copper,L2,Bot*%
%TF.FilePolarity,Positive*%
%FSLAX46Y46*%
G04 Gerber Fmt 4.6, Leading zero omitted, Abs format (unit mm)*
G04 Created by KiCad (PCBNEW (6.0.7-1)-1) date 2022-10-01 11:55:10*
%MOMM*%
%LPD*%
G01*
G04 APERTURE LIST*
G04 Aperture macros list*
%AMRoundRect*
0 Rectangle with rounded corners*
0 $1 Rounding radius*
0 $2 $3 $4 $5 $6 $7 $8 $9 X,Y pos of 4 corners*
0 Add a 4 corners polygon primitive as box body*
4,1,4,$2,$3,$4,$5,$6,$7,$8,$9,$2,$3,0*
0 Add four circle primitives for the rounded corners*
1,1,$1+$1,$2,$3*
1,1,$1+$1,$4,$5*
1,1,$1+$1,$6,$7*
1,1,$1+$1,$8,$9*
0 Add four rect primitives between the rounded corners*
20,1,$1+$1,$2,$3,$4,$5,0*
20,1,$1+$1,$4,$5,$6,$7,0*
20,1,$1+$1,$6,$7,$8,$9,0*
20,1,$1+$1,$8,$9,$2,$3,0*%
G04 Aperture macros list end*
%TA.AperFunction,ComponentPad*%
%ADD10C,8.000000*%
%TD*%
%TA.AperFunction,ComponentPad*%
%ADD11C,2.000000*%
%TD*%
%TA.AperFunction,ComponentPad*%
%ADD12C,1.600000*%
%TD*%
%TA.AperFunction,ComponentPad*%
%ADD13C,4.000000*%
%TD*%
%TA.AperFunction,ComponentPad*%
%ADD14RoundRect,0.250000X1.800000X-1.330000X1.800000X1.330000X-1.800000X1.330000X-1.800000X-1.330000X0*%
%TD*%
%TA.AperFunction,ComponentPad*%
%ADD15O,4.100000X3.160000*%
%TD*%
%TA.AperFunction,ViaPad*%
%ADD16C,0.600000*%
%TD*%
G04 APERTURE END LIST*
D10*
%TO.P,BP2,1,Pin_1*%
%TO.N,/V-*%
X95050000Y-90450000D03*
%TD*%
D11*
%TO.P,C604,1*%
%TO.N,Earth*%
X102272000Y-101736000D03*
%TO.P,C604,2*%
%TO.N,Net-(C604-Pad2)*%
X102272000Y-91736000D03*
%TD*%
D12*
%TO.P,C605,1*%
%TO.N,Net-(C603-Pad1)*%
X101764000Y-66764000D03*
%TO.P,C605,2*%
%TO.N,Earth*%
X101764000Y-61764000D03*
%TD*%
D10*
%TO.P,BP1,1,Pin_1*%
%TO.N,/V+*%
X95050000Y-71400000D03*
%TD*%
D12*
%TO.P,C607,1*%
%TO.N,Net-(C607-Pad1)*%
X112218000Y-82004000D03*
%TO.P,C607,2*%
%TO.N,Earth*%
X117218000Y-82004000D03*
%TD*%
%TO.P,C608,1*%
%TO.N,Earth*%
X107860000Y-99236000D03*
%TO.P,C608,2*%
%TO.N,Net-(C608-Pad2)*%
X107860000Y-94236000D03*
%TD*%
D10*
%TO.P,BP5,1,Pin_1*%
%TO.N,Earth*%
X95050000Y-109500000D03*
%TD*%
D11*
%TO.P,C603,1*%
%TO.N,Net-(C603-Pad1)*%
X107606000Y-66002000D03*
%TO.P,C603,2*%
%TO.N,Earth*%
X107606000Y-56002000D03*
%TD*%
D13*
%TO.P,J1,1,Pin_1*%
%TO.N,Earth*%
X106844000Y-105880000D03*
%TD*%
D14*
%TO.P,J615,1,Pin_1*%
%TO.N,Net-(C608-Pad2)*%
X104812000Y-87130000D03*
D15*
%TO.P,J615,2,Pin_2*%
%TO.N,Net-(C607-Pad1)*%
X104812000Y-83170000D03*
%TO.P,J615,3,Pin_3*%
%TO.N,Net-(J615-Pad3)*%
X104812000Y-79210000D03*
%TO.P,J615,4,Pin_4*%
%TO.N,Net-(J615-Pad4)*%
X104812000Y-75250000D03*
%TD*%
D12*
%TO.P,C606,1*%
%TO.N,Earth*%
X89318000Y-81750000D03*
%TO.P,C606,2*%
%TO.N,Net-(C604-Pad2)*%
X94318000Y-81750000D03*
%TD*%
D10*
%TO.P,BP3,1,Pin_1*%
%TO.N,/V+_sense*%
X114100000Y-71400000D03*
%TD*%
%TO.P,BP4,1,Pin_1*%
%TO.N,/V-_sense*%
X114100000Y-90450000D03*
%TD*%
D16*
%TO.N,Earth*%
X97700000Y-118580000D03*
X128180000Y-103340000D03*
X90080000Y-116040000D03*
X123100000Y-57620000D03*
X125640000Y-65240000D03*
X110400000Y-60160000D03*
X90080000Y-121120000D03*
X102780000Y-118580000D03*
X128180000Y-77940000D03*
X105320000Y-110960000D03*
X123100000Y-103340000D03*
X90080000Y-110960000D03*
X118020000Y-103340000D03*
X97700000Y-52540000D03*
X107860000Y-103340000D03*
X123100000Y-72860000D03*
X115480000Y-121120000D03*
X125640000Y-95720000D03*
X120560000Y-60160000D03*
X118020000Y-113500000D03*
X87540000Y-108420000D03*
X123100000Y-98260000D03*
X95160000Y-116040000D03*
X120560000Y-105880000D03*
X110400000Y-55080000D03*
X128180000Y-118580000D03*
X128180000Y-67780000D03*
X102780000Y-103340000D03*
X112940000Y-57620000D03*
X92620000Y-103340000D03*
X128180000Y-93180000D03*
X128180000Y-83020000D03*
X123100000Y-67780000D03*
X105320000Y-121120000D03*
X87540000Y-118580000D03*
X97700000Y-57620000D03*
X100240000Y-110960000D03*
X87540000Y-57620000D03*
X110400000Y-105880000D03*
X120560000Y-55080000D03*
X100240000Y-116040000D03*
X120560000Y-110960000D03*
X125640000Y-60160000D03*
X87540000Y-52540000D03*
X102780000Y-52540000D03*
X128180000Y-113500000D03*
X125640000Y-70320000D03*
X112940000Y-118580000D03*
X107860000Y-113500000D03*
X125640000Y-110960000D03*
X92620000Y-113500000D03*
X125640000Y-105880000D03*
X125640000Y-80480000D03*
X110400000Y-110960000D03*
X128180000Y-88100000D03*
X123100000Y-93180000D03*
X125640000Y-116040000D03*
X92620000Y-52540000D03*
X90080000Y-105880000D03*
X110400000Y-121120000D03*
X107860000Y-108420000D03*
X95160000Y-121120000D03*
X120560000Y-116040000D03*
X102780000Y-57620000D03*
X128180000Y-57620000D03*
X105320000Y-116040000D03*
X123100000Y-118580000D03*
X107860000Y-118580000D03*
X92620000Y-57620000D03*
X128180000Y-72860000D03*
X123100000Y-113500000D03*
X90080000Y-60160000D03*
X118020000Y-52540000D03*
X100240000Y-55080000D03*
X128180000Y-98260000D03*
X110400000Y-116040000D03*
X107860000Y-57620000D03*
X123100000Y-52540000D03*
X123100000Y-62700000D03*
X128180000Y-52540000D03*
X118020000Y-118580000D03*
X95160000Y-60160000D03*
X115480000Y-105880000D03*
X125640000Y-90640000D03*
X115480000Y-60160000D03*
X128180000Y-62700000D03*
X128180000Y-108420000D03*
X107860000Y-52540000D03*
X105320000Y-55080000D03*
X92620000Y-118580000D03*
X100240000Y-121120000D03*
X87540000Y-103340000D03*
X97700000Y-103340000D03*
X125640000Y-85560000D03*
X100240000Y-60160000D03*
X125640000Y-100800000D03*
X123100000Y-108420000D03*
X123100000Y-83020000D03*
X102780000Y-113500000D03*
X115480000Y-55080000D03*
X115480000Y-110960000D03*
X125640000Y-121120000D03*
X112940000Y-52540000D03*
X105320000Y-60160000D03*
X115480000Y-116040000D03*
X120560000Y-121120000D03*
X123100000Y-77940000D03*
X102780000Y-108420000D03*
X112940000Y-108420000D03*
X97700000Y-113500000D03*
X118020000Y-57620000D03*
X95160000Y-55080000D03*
X125640000Y-55080000D03*
X87540000Y-113500000D03*
X118020000Y-108420000D03*
X100240000Y-105880000D03*
X123100000Y-88100000D03*
X125640000Y-75400000D03*
X112940000Y-103340000D03*
X90080000Y-55080000D03*
X112940000Y-113500000D03*
%TD*%
%TA.AperFunction,Conductor*%
%TO.N,Earth*%
G36*
X129692539Y-50270185D02*
G01*
X129738294Y-50322989D01*
X129749500Y-50374500D01*
X129749500Y-122625500D01*
X129729815Y-122692539D01*
X129677011Y-122738294D01*
X129625500Y-122749500D01*
X85374784Y-122749500D01*
X85307745Y-122729815D01*
X85261990Y-122677011D01*
X85250784Y-122625406D01*
X85274216Y-91776406D01*
X85293952Y-91709381D01*
X85346790Y-91663667D01*
X85398216Y-91652500D01*
X87996584Y-91652500D01*
X88014639Y-91653821D01*
X88036824Y-91657086D01*
X88045814Y-91654823D01*
X88111777Y-91670640D01*
X88160126Y-91721078D01*
X88171742Y-91754317D01*
X88229691Y-92049689D01*
X88365166Y-92544900D01*
X88536545Y-93028859D01*
X88537460Y-93030944D01*
X88537465Y-93030956D01*
X88654355Y-93297239D01*
X88742908Y-93498968D01*
X88983147Y-93952699D01*
X89255971Y-94387618D01*
X89559915Y-94801388D01*
X89561393Y-94803119D01*
X89561395Y-94803121D01*
X89891867Y-95190055D01*
X89891875Y-95190064D01*
X89893346Y-95191786D01*
X89894946Y-95193403D01*
X89894948Y-95193405D01*
X90252866Y-95555092D01*
X90252879Y-95555104D01*
X90254474Y-95556716D01*
X90641360Y-95894218D01*
X91051924Y-96202478D01*
X91483962Y-96479841D01*
X91485971Y-96480932D01*
X91485973Y-96480933D01*
X91577288Y-96530513D01*
X91935153Y-96724818D01*
X91957325Y-96734829D01*
X92211847Y-96849750D01*
X92403075Y-96936093D01*
X92405185Y-96936865D01*
X92405192Y-96936868D01*
X92883087Y-97111752D01*
X92885213Y-97112530D01*
X93378978Y-97253183D01*
X93881718Y-97357296D01*
X94390734Y-97424309D01*
X94903290Y-97453863D01*
X95100329Y-97450767D01*
X95414361Y-97445834D01*
X95414369Y-97445834D01*
X95416634Y-97445798D01*
X95825949Y-97409268D01*
X95925747Y-97400361D01*
X95925750Y-97400361D01*
X95928009Y-97400159D01*
X95930247Y-97399792D01*
X95930251Y-97399792D01*
X96432429Y-97317558D01*
X96432434Y-97317557D01*
X96434669Y-97317191D01*
X96436864Y-97316664D01*
X96436874Y-97316662D01*
X96931672Y-97197871D01*
X96931679Y-97197869D01*
X96933891Y-97197338D01*
X96936066Y-97196644D01*
X97420820Y-97041939D01*
X97420825Y-97041937D01*
X97422994Y-97041245D01*
X97682640Y-96936868D01*
X97897239Y-96850600D01*
X97897252Y-96850594D01*
X97899352Y-96849750D01*
X97901410Y-96848742D01*
X98358352Y-96624889D01*
X98358358Y-96624886D01*
X98360407Y-96623882D01*
X98574222Y-96498939D01*
X98636782Y-96482000D01*
X104731826Y-96482000D01*
X104798865Y-96501685D01*
X104830202Y-96530513D01*
X104960151Y-96699865D01*
X104962054Y-96702345D01*
X105067115Y-96813834D01*
X105223976Y-96980291D01*
X105223983Y-96980298D01*
X105226129Y-96982575D01*
X105293860Y-97041245D01*
X105474059Y-97197338D01*
X105517172Y-97234684D01*
X105832201Y-97456090D01*
X106167992Y-97644527D01*
X106521107Y-97798066D01*
X106524092Y-97799019D01*
X106524093Y-97799019D01*
X106884947Y-97914182D01*
X106884953Y-97914183D01*
X106887931Y-97915134D01*
X107014132Y-97941729D01*
X107261631Y-97993885D01*
X107261635Y-97993886D01*
X107264707Y-97994533D01*
X107267825Y-97994866D01*
X107267830Y-97994867D01*
X107456143Y-98014992D01*
X107647578Y-98035451D01*
X107851368Y-98036518D01*
X108029489Y-98037451D01*
X108029497Y-98037451D01*
X108032624Y-98037467D01*
X108035737Y-98037167D01*
X108035743Y-98037167D01*
X108352258Y-98006689D01*
X108415902Y-98000561D01*
X108793489Y-97925112D01*
X108796486Y-97924190D01*
X108796490Y-97924189D01*
X109158503Y-97812819D01*
X109158511Y-97812816D01*
X109161518Y-97811891D01*
X109516221Y-97662059D01*
X109853968Y-97477148D01*
X110171298Y-97259053D01*
X110178949Y-97252565D01*
X110344990Y-97111752D01*
X110464965Y-97010006D01*
X110489388Y-96984627D01*
X110729774Y-96734829D01*
X110729778Y-96734825D01*
X110731960Y-96732557D01*
X110747164Y-96713166D01*
X110804020Y-96672558D01*
X110873805Y-96669134D01*
X110903911Y-96680707D01*
X110985153Y-96724818D01*
X111007325Y-96734829D01*
X111261847Y-96849750D01*
X111453075Y-96936093D01*
X111455185Y-96936865D01*
X111455192Y-96936868D01*
X111933087Y-97111752D01*
X111935213Y-97112530D01*
X112428978Y-97253183D01*
X112931718Y-97357296D01*
X113440734Y-97424309D01*
X113953290Y-97453863D01*
X114150329Y-97450767D01*
X114464361Y-97445834D01*
X114464369Y-97445834D01*
X114466634Y-97445798D01*
X114875949Y-97409268D01*
X114975747Y-97400361D01*
X114975750Y-97400361D01*
X114978009Y-97400159D01*
X114980247Y-97399792D01*
X114980251Y-97399792D01*
X115482429Y-97317558D01*
X115482434Y-97317557D01*
X115484669Y-97317191D01*
X115486864Y-97316664D01*
X115486874Y-97316662D01*
X115981672Y-97197871D01*
X115981679Y-97197869D01*
X115983891Y-97197338D01*
X115986066Y-97196644D01*
X116470820Y-97041939D01*
X116470825Y-97041937D01*
X116472994Y-97041245D01*
X116732640Y-96936868D01*
X116947239Y-96850600D01*
X116947252Y-96850594D01*
X116949352Y-96849750D01*
X116951410Y-96848742D01*
X117408352Y-96624889D01*
X117408358Y-96624886D01*
X117410407Y-96623882D01*
X117853680Y-96364854D01*
X117855535Y-96363579D01*
X117855543Y-96363574D01*
X118274925Y-96075341D01*
X118274928Y-96075339D01*
X118276793Y-96074057D01*
X118503125Y-95892731D01*
X118675687Y-95754482D01*
X118677472Y-95753052D01*
X118890503Y-95555092D01*
X119051897Y-95405115D01*
X119053565Y-95403565D01*
X119403052Y-95027472D01*
X119724057Y-94626793D01*
X119725341Y-94624925D01*
X120013574Y-94205543D01*
X120013579Y-94205535D01*
X120014854Y-94203680D01*
X120273882Y-93760407D01*
X120401960Y-93498968D01*
X120498742Y-93301410D01*
X120498744Y-93301405D01*
X120499750Y-93299352D01*
X120500594Y-93297252D01*
X120500600Y-93297239D01*
X120690396Y-92825105D01*
X120691245Y-92822994D01*
X120779318Y-92547027D01*
X120846644Y-92336066D01*
X120846645Y-92336063D01*
X120847338Y-92333891D01*
X120915569Y-92049689D01*
X120966662Y-91836874D01*
X120966664Y-91836864D01*
X120967191Y-91834669D01*
X120995194Y-91663667D01*
X121049792Y-91330251D01*
X121049792Y-91330247D01*
X121050159Y-91328009D01*
X121064617Y-91166015D01*
X121095625Y-90818577D01*
X121095626Y-90818564D01*
X121095798Y-90816634D01*
X121105399Y-90450000D01*
X121086586Y-89936937D01*
X121030247Y-89426630D01*
X120936686Y-88921820D01*
X120806405Y-88425217D01*
X120640103Y-87939490D01*
X120445508Y-87483266D01*
X120439570Y-87469344D01*
X120439569Y-87469341D01*
X120438675Y-87467246D01*
X120380906Y-87355320D01*
X120237330Y-87077149D01*
X120203200Y-87011023D01*
X119972520Y-86634586D01*
X119936134Y-86575209D01*
X119936129Y-86575201D01*
X119934946Y-86573271D01*
X119879395Y-86495964D01*
X119636685Y-86158198D01*
X119636681Y-86158192D01*
X119635351Y-86156342D01*
X119353303Y-85819015D01*
X119307481Y-85764213D01*
X119307479Y-85764211D01*
X119306026Y-85762473D01*
X118948739Y-85393782D01*
X118947054Y-85392281D01*
X118947047Y-85392274D01*
X118794588Y-85256438D01*
X118565409Y-85052247D01*
X118563622Y-85050876D01*
X118563615Y-85050870D01*
X118159900Y-84741089D01*
X118159895Y-84741086D01*
X118158096Y-84739705D01*
X118156208Y-84738465D01*
X118156197Y-84738457D01*
X117785614Y-84495030D01*
X117728986Y-84457832D01*
X117486922Y-84323101D01*
X117282371Y-84209249D01*
X117282363Y-84209245D01*
X117280385Y-84208144D01*
X117278317Y-84207184D01*
X117278311Y-84207181D01*
X116816772Y-83992942D01*
X116816765Y-83992939D01*
X116814701Y-83991981D01*
X116543828Y-83889627D01*
X116336571Y-83811310D01*
X116336562Y-83811307D01*
X116334437Y-83810504D01*
X116101168Y-83741406D01*
X115844344Y-83665331D01*
X115844334Y-83665329D01*
X115842172Y-83664688D01*
X115839956Y-83664205D01*
X115839941Y-83664201D01*
X115831588Y-83662380D01*
X115770280Y-83628868D01*
X115736822Y-83567530D01*
X115734000Y-83541226D01*
X115734000Y-83473678D01*
X115742005Y-83429847D01*
X115840112Y-83170215D01*
X115841218Y-83167288D01*
X115940227Y-82795184D01*
X116001126Y-82414979D01*
X116023291Y-82030566D01*
X116023384Y-82004000D01*
X116003903Y-81619442D01*
X115945660Y-81238821D01*
X115877409Y-80974912D01*
X115850038Y-80869077D01*
X115850036Y-80869072D01*
X115849251Y-80866035D01*
X115741702Y-80575292D01*
X115734000Y-80532272D01*
X115734000Y-78305086D01*
X115753685Y-78238047D01*
X115806489Y-78192292D01*
X115829052Y-78184512D01*
X115879715Y-78172349D01*
X115983891Y-78147338D01*
X115986066Y-78146644D01*
X116470820Y-77991939D01*
X116470825Y-77991937D01*
X116472994Y-77991245D01*
X116732640Y-77886868D01*
X116947239Y-77800600D01*
X116947252Y-77800594D01*
X116949352Y-77799750D01*
X117204371Y-77674818D01*
X117408352Y-77574889D01*
X117408358Y-77574886D01*
X117410407Y-77573882D01*
X117853680Y-77314854D01*
X117855535Y-77313579D01*
X117855543Y-77313574D01*
X118274925Y-77025341D01*
X118274928Y-77025339D01*
X118276793Y-77024057D01*
X118503125Y-76842731D01*
X118675687Y-76704482D01*
X118677472Y-76703052D01*
X118890503Y-76505092D01*
X119051897Y-76355115D01*
X119053565Y-76353565D01*
X119403052Y-75977472D01*
X119724057Y-75576793D01*
X119725341Y-75574925D01*
X120013574Y-75155543D01*
X120013579Y-75155535D01*
X120014854Y-75153680D01*
X120273882Y-74710407D01*
X120401960Y-74448968D01*
X120498742Y-74251410D01*
X120498744Y-74251405D01*
X120499750Y-74249352D01*
X120500594Y-74247252D01*
X120500600Y-74247239D01*
X120690396Y-73775105D01*
X120691245Y-73772994D01*
X120779318Y-73497027D01*
X120846644Y-73286066D01*
X120846645Y-73286063D01*
X120847338Y-73283891D01*
X120915569Y-72999689D01*
X120966662Y-72786874D01*
X120966664Y-72786864D01*
X120967191Y-72784669D01*
X121014114Y-72498128D01*
X121049792Y-72280251D01*
X121049792Y-72280247D01*
X121050159Y-72278009D01*
X121095798Y-71766634D01*
X121095849Y-71764693D01*
X121105349Y-71401924D01*
X121105349Y-71401912D01*
X121105399Y-71400000D01*
X121086586Y-70886937D01*
X121030247Y-70376630D01*
X120936686Y-69871820D01*
X120806405Y-69375217D01*
X120640103Y-68889490D01*
X120438675Y-68417246D01*
X120203200Y-67961023D01*
X119972520Y-67584586D01*
X119936134Y-67525209D01*
X119936129Y-67525201D01*
X119934946Y-67523271D01*
X119879395Y-67445964D01*
X119636685Y-67108198D01*
X119636681Y-67108192D01*
X119635351Y-67106342D01*
X119353303Y-66769015D01*
X119307481Y-66714213D01*
X119307479Y-66714211D01*
X119306026Y-66712473D01*
X118948739Y-66343782D01*
X118947054Y-66342281D01*
X118947047Y-66342274D01*
X118794588Y-66206438D01*
X118565409Y-66002247D01*
X118563622Y-66000876D01*
X118563615Y-66000870D01*
X118159900Y-65691089D01*
X118159895Y-65691086D01*
X118158096Y-65689705D01*
X118156208Y-65688465D01*
X118156197Y-65688457D01*
X117785614Y-65445030D01*
X117728986Y-65407832D01*
X117682211Y-65381798D01*
X117282371Y-65159249D01*
X117282363Y-65159245D01*
X117280385Y-65158144D01*
X117278317Y-65157184D01*
X117278311Y-65157181D01*
X116816772Y-64942942D01*
X116816765Y-64942939D01*
X116814701Y-64941981D01*
X116420594Y-64793060D01*
X116336571Y-64761310D01*
X116336562Y-64761307D01*
X116334437Y-64760504D01*
X115842172Y-64614688D01*
X115839973Y-64614209D01*
X115839967Y-64614207D01*
X115342764Y-64505800D01*
X115342765Y-64505800D01*
X115340549Y-64505317D01*
X115113212Y-64472962D01*
X114834520Y-64433298D01*
X114834518Y-64433298D01*
X114832264Y-64432977D01*
X114829992Y-64432822D01*
X114829991Y-64432822D01*
X114789701Y-64430075D01*
X114320045Y-64398058D01*
X113871790Y-64400405D01*
X113808934Y-64400734D01*
X113806644Y-64400746D01*
X113804370Y-64400925D01*
X113804369Y-64400925D01*
X113618927Y-64415519D01*
X113294819Y-64441027D01*
X112787319Y-64518686D01*
X112446562Y-64596730D01*
X112289095Y-64632794D01*
X112289090Y-64632795D01*
X112286869Y-64633304D01*
X112284694Y-64633973D01*
X112284687Y-64633975D01*
X112071550Y-64699545D01*
X111796158Y-64784267D01*
X111794050Y-64785089D01*
X111794041Y-64785092D01*
X111696575Y-64823093D01*
X111583975Y-64866994D01*
X111514366Y-64873006D01*
X111452555Y-64840430D01*
X111422118Y-64793060D01*
X111310120Y-64478534D01*
X111309107Y-64475689D01*
X111292797Y-64441027D01*
X111143779Y-64124349D01*
X111142492Y-64121614D01*
X111070818Y-64001379D01*
X110943668Y-63788083D01*
X110943663Y-63788076D01*
X110942120Y-63785487D01*
X110940334Y-63783064D01*
X110940329Y-63783057D01*
X110757688Y-63535328D01*
X110709905Y-63470517D01*
X110448061Y-63179711D01*
X110159090Y-62915844D01*
X109845749Y-62681435D01*
X109511030Y-62478722D01*
X109158126Y-62309638D01*
X109103075Y-62289601D01*
X109086833Y-62283690D01*
X108790407Y-62175800D01*
X108411382Y-62078483D01*
X108408381Y-62078018D01*
X108408374Y-62078017D01*
X108027670Y-62019081D01*
X108027661Y-62019080D01*
X108024670Y-62018617D01*
X107633962Y-61996773D01*
X107242987Y-62013159D01*
X107239983Y-62013581D01*
X107239974Y-62013582D01*
X107018631Y-62044690D01*
X106855477Y-62067620D01*
X106475131Y-62159636D01*
X106472271Y-62160632D01*
X106472264Y-62160634D01*
X106425730Y-62176839D01*
X106105579Y-62288327D01*
X106102828Y-62289598D01*
X106102821Y-62289601D01*
X105753110Y-62451191D01*
X105753106Y-62451193D01*
X105750349Y-62452467D01*
X105747730Y-62454003D01*
X105747731Y-62454003D01*
X105415443Y-62648954D01*
X105415435Y-62648959D01*
X105412831Y-62650487D01*
X105096248Y-62880498D01*
X104803621Y-63140305D01*
X104537743Y-63427427D01*
X104301152Y-63739124D01*
X104299234Y-63742242D01*
X104299137Y-63742330D01*
X104297854Y-63744203D01*
X104297402Y-63743894D01*
X104247341Y-63789025D01*
X104178391Y-63800327D01*
X104112762Y-63771275D01*
X104098740Y-63759215D01*
X104098736Y-63759212D01*
X104096347Y-63757157D01*
X103780546Y-63536851D01*
X103777821Y-63535335D01*
X103777811Y-63535328D01*
X103562946Y-63415736D01*
X103444099Y-63349587D01*
X103090450Y-63197282D01*
X102723221Y-63081495D01*
X102346170Y-63003412D01*
X102343049Y-63003089D01*
X102343046Y-63003089D01*
X101966284Y-62964154D01*
X101966283Y-62964154D01*
X101963158Y-62963831D01*
X101769589Y-62963493D01*
X101581244Y-62963164D01*
X101581235Y-62963164D01*
X101578108Y-62963159D01*
X101194961Y-63001402D01*
X100817639Y-63078169D01*
X100814642Y-63079103D01*
X100814640Y-63079103D01*
X100803936Y-63082437D01*
X100450008Y-63192674D01*
X100439205Y-63197282D01*
X100098712Y-63342514D01*
X100098707Y-63342516D01*
X100095829Y-63343744D01*
X100093089Y-63345256D01*
X100093086Y-63345258D01*
X99761482Y-63528313D01*
X99761477Y-63528316D01*
X99758731Y-63529832D01*
X99756150Y-63531619D01*
X99756147Y-63531621D01*
X99748594Y-63536851D01*
X99442163Y-63749034D01*
X99365255Y-63814720D01*
X99151763Y-63997058D01*
X99151758Y-63997063D01*
X99149368Y-63999104D01*
X98883343Y-64277484D01*
X98881405Y-64279974D01*
X98881402Y-64279977D01*
X98695839Y-64518343D01*
X98646812Y-64581321D01*
X98645142Y-64583984D01*
X98645138Y-64583989D01*
X98519504Y-64784267D01*
X98442196Y-64907507D01*
X98440800Y-64910332D01*
X98355528Y-65082867D01*
X98308178Y-65134245D01*
X98240568Y-65151868D01*
X98192157Y-65140399D01*
X97826707Y-64970763D01*
X97766772Y-64942942D01*
X97766765Y-64942939D01*
X97764701Y-64941981D01*
X97370594Y-64793060D01*
X97286571Y-64761310D01*
X97286562Y-64761307D01*
X97284437Y-64760504D01*
X96792172Y-64614688D01*
X96789973Y-64614209D01*
X96789967Y-64614207D01*
X96292764Y-64505800D01*
X96292765Y-64505800D01*
X96290549Y-64505317D01*
X96063212Y-64472962D01*
X95784520Y-64433298D01*
X95784518Y-64433298D01*
X95782264Y-64432977D01*
X95779992Y-64432822D01*
X95779991Y-64432822D01*
X95739701Y-64430075D01*
X95270045Y-64398058D01*
X94821790Y-64400405D01*
X94758934Y-64400734D01*
X94756644Y-64400746D01*
X94754370Y-64400925D01*
X94754369Y-64400925D01*
X94568927Y-64415519D01*
X94244819Y-64441027D01*
X93737319Y-64518686D01*
X93396562Y-64596730D01*
X93239095Y-64632794D01*
X93239090Y-64632795D01*
X93236869Y-64633304D01*
X93234694Y-64633973D01*
X93234687Y-64633975D01*
X93021550Y-64699545D01*
X92746158Y-64784267D01*
X92744050Y-64785089D01*
X92744041Y-64785092D01*
X92592094Y-64844334D01*
X92267821Y-64970763D01*
X92097779Y-65051868D01*
X91806486Y-65190807D01*
X91806477Y-65190812D01*
X91804426Y-65191790D01*
X91358464Y-65446163D01*
X91356570Y-65447436D01*
X90934206Y-65731252D01*
X90934199Y-65731257D01*
X90932330Y-65732513D01*
X90930548Y-65733910D01*
X90930547Y-65733911D01*
X90586410Y-66003749D01*
X90528311Y-66049304D01*
X90148579Y-66394834D01*
X89795173Y-66767247D01*
X89793726Y-66769015D01*
X89471429Y-67162783D01*
X89471420Y-67162795D01*
X89469990Y-67164542D01*
X89174778Y-67584586D01*
X88911122Y-68025123D01*
X88680438Y-68483787D01*
X88483966Y-68958114D01*
X88322760Y-69445556D01*
X88197686Y-69943496D01*
X88109416Y-70449258D01*
X88058425Y-70960127D01*
X88058366Y-70962388D01*
X88046856Y-71401924D01*
X88044985Y-71473359D01*
X88045092Y-71475627D01*
X88045092Y-71475631D01*
X88058816Y-71766634D01*
X88069170Y-71986197D01*
X88130849Y-72495886D01*
X88229691Y-72999689D01*
X88365166Y-73494900D01*
X88536545Y-73978859D01*
X88537460Y-73980944D01*
X88537465Y-73980956D01*
X88654355Y-74247239D01*
X88742908Y-74448968D01*
X88983147Y-74902699D01*
X89255971Y-75337618D01*
X89559915Y-75751388D01*
X89561393Y-75753119D01*
X89561395Y-75753121D01*
X89891867Y-76140055D01*
X89891875Y-76140064D01*
X89893346Y-76141786D01*
X89894946Y-76143403D01*
X89894948Y-76143405D01*
X90252866Y-76505092D01*
X90252879Y-76505104D01*
X90254474Y-76506716D01*
X90641360Y-76844218D01*
X91051924Y-77152478D01*
X91483962Y-77429841D01*
X91935153Y-77674818D01*
X92183891Y-77787127D01*
X92211847Y-77799750D01*
X92403075Y-77886093D01*
X92405185Y-77886865D01*
X92405192Y-77886868D01*
X92538614Y-77935693D01*
X92594805Y-77977218D01*
X92619627Y-78042530D01*
X92620000Y-78052141D01*
X92620000Y-78273022D01*
X92600315Y-78340061D01*
X92555927Y-78381579D01*
X92315497Y-78514304D01*
X92315481Y-78514314D01*
X92312731Y-78515832D01*
X91996163Y-78735034D01*
X91993777Y-78737072D01*
X91705763Y-78983058D01*
X91705758Y-78983063D01*
X91703368Y-78985104D01*
X91437343Y-79263484D01*
X91200812Y-79567321D01*
X90996196Y-79893507D01*
X90825591Y-80238700D01*
X90824491Y-80241642D01*
X90824488Y-80241649D01*
X90707529Y-80554471D01*
X90690743Y-80599366D01*
X90593034Y-80971814D01*
X90533462Y-81352229D01*
X90533293Y-81355354D01*
X90518821Y-81622578D01*
X90512639Y-81736717D01*
X90512787Y-81739850D01*
X90526577Y-82032251D01*
X90530778Y-82121340D01*
X90587692Y-82502162D01*
X90682799Y-82875283D01*
X90815126Y-83236882D01*
X90983317Y-83583258D01*
X91185650Y-83910864D01*
X91420054Y-84216345D01*
X91422195Y-84218617D01*
X91422212Y-84218637D01*
X91461956Y-84260811D01*
X91493608Y-84323101D01*
X91486558Y-84392614D01*
X91443046Y-84447281D01*
X91433156Y-84453559D01*
X91358464Y-84496163D01*
X91356570Y-84497436D01*
X90934206Y-84781252D01*
X90934199Y-84781257D01*
X90932330Y-84782513D01*
X90930548Y-84783910D01*
X90930547Y-84783911D01*
X90586410Y-85053749D01*
X90528311Y-85099304D01*
X90148579Y-85444834D01*
X89795173Y-85817247D01*
X89793726Y-85819015D01*
X89471429Y-86212783D01*
X89471420Y-86212795D01*
X89469990Y-86214542D01*
X89174778Y-86634586D01*
X88911122Y-87075123D01*
X88910103Y-87077148D01*
X88910103Y-87077149D01*
X88740146Y-87415070D01*
X88692438Y-87466116D01*
X88624706Y-87483266D01*
X88580539Y-87473335D01*
X88418541Y-87403937D01*
X88418539Y-87403936D01*
X88413963Y-87401976D01*
X88222077Y-87354116D01*
X88032633Y-87338141D01*
X88025016Y-87336594D01*
X88013028Y-87338929D01*
X88013027Y-87338929D01*
X88011569Y-87339213D01*
X87987862Y-87341500D01*
X85398261Y-87341500D01*
X85331222Y-87321815D01*
X85285467Y-87269011D01*
X85274261Y-87217579D01*
X85262299Y-68481752D01*
X85250739Y-50374578D01*
X85270381Y-50307527D01*
X85323156Y-50261739D01*
X85374739Y-50250500D01*
X129625500Y-50250500D01*
X129692539Y-50270185D01*
G37*
%TD.AperFunction*%
%TD*%
M02*
